<?xml version="1.0" standalone="no"?>
<!DOCTYPE svg PUBLIC "-//W3C//DTD SVG 20010904//EN"
 "http://www.w3.org/TR/2001/REC-SVG-20010904/DTD/svg10.dtd">
<svg version="1.0" xmlns="http://www.w3.org/2000/svg"
 width="872.000000pt" height="872.000000pt" viewBox="0 0 872.000000 872.000000"
 preserveAspectRatio="xMidYMid meet">
<metadata>
Created by potrace 1.11, written by Peter Selinger 2001-2013
</metadata>
<g transform="translate(0.000000,872.000000) scale(0.100000,-0.100000)"
fill="#000000" stroke="none">
<path d="M4118 8715 c-1 -1 -49 -6 -105 -9 -55 -4 -112 -9 -125 -11 -12 -2
-45 -6 -73 -10 -27 -3 -63 -8 -80 -10 -16 -3 -48 -7 -70 -10 -82 -11 -294 -57
-420 -90 -298 -79 -556 -177 -845 -321 -127 -64 -396 -217 -410 -233 -3 -3
-39 -28 -80 -55 -265 -173 -651 -519 -866 -776 -135 -162 -245 -308 -351 -470
-49 -76 -243 -415 -243 -426 0 -2 -20 -46 -44 -97 -211 -442 -349 -967 -394
-1497 -14 -174 -6 -681 13 -815 2 -16 7 -48 9 -70 9 -71 25 -179 36 -235 6
-30 13 -67 15 -82 3 -16 12 -58 21 -95 9 -38 17 -76 19 -85 41 -202 208 -661
320 -878 122 -236 206 -381 301 -518 24 -35 44 -67 44 -72 0 -4 3 -10 8 -12 4
-2 32 -37 62 -78 249 -340 622 -703 980 -956 298 -211 658 -405 944 -510 446
-164 813 -247 1239 -281 188 -15 700 -7 809 12 12 3 43 7 68 9 424 45 925 192
1350 397 446 215 824 483 1181 839 271 270 468 519 664 840 83 135 207 377
269 525 20 50 44 105 52 123 47 102 168 498 198 645 26 123 55 281 61 327 3
25 10 77 15 115 31 241 34 803 5 990 -2 17 -7 48 -9 70 -5 41 -23 156 -32 210
-3 17 -7 39 -9 50 -5 37 -14 80 -39 185 -79 337 -179 616 -331 925 -118 237
-162 315 -282 494 -35 51 -63 97 -63 102 0 4 -3 9 -7 11 -5 2 -35 39 -67 83
-177 238 -466 544 -697 737 -364 303 -765 542 -1204 716 -240 95 -492 168
-760 221 -153 30 -172 33 -330 51 -49 5 -110 12 -135 16 -47 6 -606 15 -612 9z"/>
</g>
</svg>
